<svg t="1563782438799" class="icon" viewBox="0 0 1024 1024" version="1.1" xmlns="http://www.w3.org/2000/svg" p-id="4822" width="200" height="200"><path d="M708.923077 393.846154c0-43.323077-35.446154-78.769231-78.769231-78.769231H118.153846c-43.323077 0-78.769231 35.446154-78.769231 78.769231v512c0 43.323077 35.446154 78.769231 78.769231 78.769231h512c43.323077 0 78.769231-35.446154 78.769231-78.769231V393.846154z m137.846154-354.461539H334.769231c-76.8 0-137.846154 61.046154-137.846154 137.846154v59.076923h512c43.323077 0 78.769231 35.446154 78.769231 78.769231v512h59.076923c76.8 0 137.846154-61.046154 137.846154-137.846154V177.230769c0-76.8-61.046154-137.846154-137.846154-137.846154z" p-id="4823"></path></svg>
