<svg t="1563786459370" class="icon" viewBox="0 0 1024 1024" version="1.1" xmlns="http://www.w3.org/2000/svg" p-id="4701" width="200" height="200"><path d="M226.461538 334.769231h-157.538461c-15.753846 0-29.538462 13.784615-29.538462 29.538461V866.461538c0 43.323077 35.446154 78.769231 78.769231 78.769231h108.307692c15.753846 0 29.538462-13.784615 29.538462-29.538461v-551.384616c0-15.753846-13.784615-29.538462-29.538462-29.538461z m728.615385 0h-590.769231c-15.753846 0-29.538462 13.784615-29.538461 29.538461v551.384616c0 15.753846 13.784615 29.538462 29.538461 29.538461H905.846154c43.323077 0 78.769231-35.446154 78.769231-78.769231V364.307692c0-15.753846-13.784615-29.538462-29.538462-29.538461zM905.846154 78.769231H118.153846C74.830769 78.769231 39.384615 114.215385 39.384615 157.538462v68.923076c0 15.753846 13.784615 29.538462 29.538462 29.538462h886.153846c15.753846 0 29.538462-13.784615 29.538462-29.538462V157.538462c0-43.323077-35.446154-78.769231-78.769231-78.769231z" p-id="4702"></path></svg>
