<svg t="1563786769956" class="icon" viewBox="0 0 1024 1024" version="1.1" xmlns="http://www.w3.org/2000/svg" p-id="6912" width="200" height="200"><path d="M857.3 806.4H166.7C74.8 806.4 0 731.6 0 639.7V384.3c0-91.9 74.8-166.7 166.7-166.7h690.6c91.9 0 166.7 74.8 166.7 166.7v255.4c0 91.9-74.8 166.7-166.7 166.7zM166.7 278c-58.6 0-106.3 47.7-106.3 106.3v255.4c0 58.6 47.7 106.3 106.3 106.3h690.6c58.6 0 106.3-47.7 106.3-106.3V384.3c0-58.6-47.7-106.3-106.3-106.3H166.7z" p-id="6913"></path><path d="M741.8 622.3H282.2c-21.9 0-39.6-17.7-39.6-39.6V441.3c0-21.9 17.7-39.6 39.6-39.6h459.7c21.9 0 39.6 17.7 39.6 39.6v141.5c-0.1 21.8-17.8 39.5-39.7 39.5z" p-id="6914"></path></svg>
