<svg t="1563786871427" class="icon" viewBox="0 0 1024 1024" version="1.1" xmlns="http://www.w3.org/2000/svg" p-id="18635" width="200" height="200"><path d="M768 192l0 128c0 35.328 28.608 64 64 64l128 0 0 448L128 832 128 192 768 192M832 128 64 128l0 768 960 0L1024 320l-192 0L832 128 832 128zM1024 128l-128 0 0 128 128 0L1024 128zM192 512l64 0 0 256 64 0L320 512l64 0L384 448 192 448 192 512zM448 512l128 0 0 64L448 576l0 64 0 64 0 64 64 0 128 0 0-64 0-64L640 576 640 512 640 448 448 448 448 512zM576 704 512 704l0-64 64 0L576 704zM768 576 768 448l-64 0 0 320 64 0 64 0 64 0 0-64 0-64L896 576 768 576zM832 704l-64 0 0-64 64 0L832 704z" p-id="18636"></path></svg>
