<svg t="1566532685137" class="icon" viewBox="0 0 1024 1024" version="1.1" xmlns="http://www.w3.org/2000/svg" p-id="5123" width="64" height="64"><path d="M866.461538 137.846154h-98.461538V98.461538c0-31.507692-25.6-59.076923-59.076923-59.076923-31.507692 0-59.076923 25.6-59.076923 59.076923v39.384616H374.153846V98.461538c0-31.507692-25.6-59.076923-59.076923-59.076923-31.507692 0-59.076923 25.6-59.076923 59.076923v39.384616H157.538462c-43.323077 0-78.769231 35.446154-78.769231 78.769231v49.230769c0 15.753846 13.784615 29.538462 29.538461 29.538461h807.384616c15.753846 0 29.538462-13.784615 29.538461-29.538461V216.615385c0-43.323077-35.446154-78.769231-78.769231-78.769231z m49.23077 256h-807.384616c-15.753846 0-29.538462 13.784615-29.538461 29.538461V905.846154c0 43.323077 35.446154 78.769231 78.769231 78.769231h708.923076c43.323077 0 78.769231-35.446154 78.769231-78.769231V423.384615c0-15.753846-13.784615-29.538462-29.538461-29.538461zM571.076923 827.076923v3.938462c0 15.753846-19.692308 35.446154-39.384615 35.446153s-39.384615-19.692308-39.384616-39.384615V630.153846l-29.538461 31.507692c-5.907692 5.907692-11.815385 7.876923-19.692308 7.876924-15.753846 0-29.538462-13.784615-29.538461-29.538462 0-7.876923 3.938462-15.753846 9.846153-21.661538l76.8-76.8c7.876923-7.876923 17.723077-11.815385 29.538462-11.815385 21.661538 0 41.353846 17.723077 41.353846 39.384615V827.076923z" p-id="5124"></path></svg>
