<svg t="1566531903925" class="icon" viewBox="0 0 1146 1024" version="1.1" xmlns="http://www.w3.org/2000/svg" p-id="2270" width="64" height="64"><path d="M573.44 655.36c-101.64224 0-184.32 82.67776-184.32 184.32s82.67776 184.32 184.32 184.32 184.32-82.67776 184.32-184.32-82.68288-184.32-184.32-184.32zM573.44 614.4c67.75808 0 122.88-55.12192 122.88-122.88s-55.12192-122.88-122.88-122.88c-67.7632 0-122.88 55.12192-122.88 122.88s55.12192 122.88 122.88 122.88z" fill="#FD5A5A" p-id="2271"></path><path d="M880.64 491.52c-67.7632 0-122.88 55.12192-122.88 122.88s55.1168 122.88 122.88 122.88c67.75808 0 122.88-55.12192 122.88-122.88s-55.12192-122.88-122.88-122.88z" fill="#50CCD3" p-id="2272"></path><path d="M266.24 491.52c-67.7632 0-122.88 55.12192-122.88 122.88s55.1168 122.88 122.88 122.88c67.75808 0 122.88-55.12192 122.88-122.88S333.99808 491.52 266.24 491.52z" fill="#63B473" p-id="2273"></path><path d="M573.44 327.68c45.17888 0 81.92-36.74112 81.92-81.92s-36.74112-81.92-81.92-81.92c-45.184 0-81.92 36.74112-81.92 81.92s36.736 81.92 81.92 81.92z" fill="#FD5A5A" p-id="2274"></path><path d="M839.68 389.12c45.17888 0 81.92-36.74112 81.92-81.92s-36.74112-81.92-81.92-81.92c-45.184 0-81.92 36.74112-81.92 81.92s36.736 81.92 81.92 81.92zM307.2 389.12c45.17888 0 81.92-36.74112 81.92-81.92s-36.74112-81.92-81.92-81.92c-45.184 0-81.92 36.74112-81.92 81.92s36.736 81.92 81.92 81.92z" fill="#FCC24C" p-id="2275"></path><path d="M573.44 122.88c33.87904 0 61.44-27.56096 61.44-61.44s-27.56096-61.44-61.44-61.44-61.44 27.56096-61.44 61.44 27.56096 61.44 61.44 61.44z" fill="#FD5A5A" p-id="2276"></path><path d="M184.32 204.8c33.87904 0 61.44-27.56096 61.44-61.44s-27.56096-61.44-61.44-61.44-61.44 27.56096-61.44 61.44 27.56096 61.44 61.44 61.44zM942.08 204.8c33.87904 0 61.44-27.56096 61.44-61.44s-27.56096-61.44-61.44-61.44-61.44 27.56096-61.44 61.44 27.56096 61.44 61.44 61.44z" fill="#FCC24C" p-id="2277"></path><path d="M1064.96 368.64c-45.184 0-81.92 36.74112-81.92 81.92s36.74112 81.92 81.92 81.92 81.92-36.74112 81.92-81.92-36.74112-81.92-81.92-81.92z" fill="#50CCD3" p-id="2278"></path><path d="M81.92 368.64C36.736 368.64 0 405.38112 0 450.56s36.74112 81.92 81.92 81.92 81.92-36.74112 81.92-81.92-36.74112-81.92-81.92-81.92z" fill="#63B473" p-id="2279"></path></svg>
