<svg t="1566532708884" class="icon" viewBox="0 0 1057 1024" version="1.1" xmlns="http://www.w3.org/2000/svg" p-id="1865" width="64" height="64"><path d="M1056.66198 789.960404c0 40.716929-29.384404 73.665939-77.993374 72.782869-24.39499-0.122828-22.494384 0.469333-44.818101 0-38.932687-0.835232-36.388202-24.512646-49.082182-72.782869-31.219071-118.941737-163.240081-274.627232-193.325253-292.619636-79.422061-47.427232 21.361778-15.913374 21.361778-168.516525 0-39.169293-8.899232-88.380768-24.921212-121.500444-12.471596-25.936162-22.794343-49.861818 24.921212-48.378828 94.915232 3.031919 171.898828 76.105697 171.898828 169.879273 0 58.829576-30.214465 110.646303-76.21301 141.154263 8.965172 2.077737 18.106182 4.208485 28.255677 6.88097C962.938828 513.542465 1056.66198 663.95798 1056.66198 789.960404L1056.66198 789.960404 1056.66198 789.960404 1056.66198 789.960404 1056.66198 789.960404zM805.04501 873.249616c-0.293495 38.926222-17.088646 77.746424-83.211636 77.693414-148.874343-0.178424-566.381899 0.530101-638.440727 0C2.611717 950.343111 0 910.582949 0 873.249616c0-179.913697 122.748121-341.063111 287.459556-387.47798-72.467394-38.70901-108.797414-110.819556-108.797414-194.280727 0-121.737051 100.372687-220.805172 223.829333-220.805172 123.341576 0 223.715556 99.064242 223.715556 220.805172 0 83.461172-39.82998 155.571717-112.302545 194.280727C678.800808 532.186505 806.825374 694.993455 805.04501 873.249616L805.04501 873.249616 805.04501 873.249616 805.04501 873.249616 805.04501 873.249616zM805.04501 873.249616" p-id="1866"></path></svg>
