        <svg
          t="1569745054579"
          class="icon"
          viewBox="0 0 1024 1024"
          version="1.1"
          xmlns="http://www.w3.org/2000/svg"
          p-id="4780"
          width="18"
          height="30"
        >
          <path
            d="M709.76 241.7664c-18.0224-0.256-32.6144 13.568-32.6144 30.848l-0.5632 518.144c-0.3072 116.48-84.992 168.6016-163.712 168.0896-78.72-0.8192-163.4304-54.272-163.1488-170.496 0-89.088 0.5632-446.0544 0.8448-624.512 0-40.96 17.1776-72.8832 48.1024-89.6256 30.336-16.4864 69.8368-16.2304 100.1728 0.768 30.8992 17.3056 47.7952 49.4848 47.7952 90.4448l-0.8704 597.12c0 19.4048-4.864 35.3792-13.44 45.4912-5.4528 6.3744-12.5952 10.0864-19.7632 10.0864-16.0256-0.256-32.6144-19.4048-32.3328-55.296 0 0 0.5632-442.3424 0.8704-459.3408 0-17.3056-14.592-31.3856-32.64-31.3856-18.0224 0-32.64 13.824-32.64 31.104L414.976 762.5472c0 77.1328 49.2288 117.8368 97.8944 118.3488 26.88 0.256 52.3776-11.6992 70.4-32.9728 18.0224-21.2736 27.7504-50.5344 27.7504-84.5824l0.8704-597.0944c0-63.3088-29.184-115.968-80.4352-144.4352C481.3824-6.4 416.128-6.912 365.7472 20.48 314.5216 48.384 285.0304 100.5312 284.7488 163.84 284.4672 342.0416 284.1856 698.9824 283.8784 788.352c-0.256 152.1408 114.7904 232.448 228.4032 233.5232 58.6752 0.512 117.632-20.48 161.152-61.44 40.6272-38.5792 67.84-94.976 67.84-168.6272l0.256-518.4c0.8704-17.536-13.7216-31.6416-31.744-31.6416z"
            p-id="4781"
          />
        </svg>
