<svg t="1566533125186" class="icon" viewBox="0 0 1024 1024" version="1.1" xmlns="http://www.w3.org/2000/svg" p-id="3196" width="64" height="64"><path d="M724.78545 611.229599c2.070849 0.804568 4.283412 1.339423 6.642259 1.339423 34.64215 0 68.34716 4.927981 98.088758 9.284535 23.954192 3.519986 45.608964 6.678831 64.159748 6.678831 22.052485 0 39.743844-4.479982 51.730082-18.175929 19.63878-22.431912 12.114238-59.30491 4.745125-85.092237-32.297016-113.032699-106.669295-129.764062-135.556039-131.871482-15.88108 88.356224-47.167815 162.390219-89.809933 217.836859zM137.455186 620.605562c18.555356 0 40.205556-3.163416 64.164319-6.678831 29.737026-4.356554 63.442036-9.284535 98.084186-9.284535 0.411427 0 0.758854-0.214856 1.161138-0.233142-40.575841-55.894638-70.578008-130.056632-87.121943-218.677998-30.59188 2.98056-101.430459 21.942771-132.758336 131.60634-7.364542 25.782756-14.893656 62.660325 4.740553 85.087666 11.99081 13.695946 29.677598 18.1805 51.730083 18.1805z" fill="#F8A131" p-id="3197"></path><path d="M360.384596 516.354543l72.658 8.914251a18.221643 18.221643 0 0 0 13.467376-3.702843 18.363356 18.363356 0 0 0 6.893687-12.338237l6.660545-54.230644a18.386213 18.386213 0 0 0-3.707414-13.604518 18.066215 18.066215 0 0 0-12.150809-6.875402l-72.685429-8.927965a18.098215 18.098215 0 0 0-13.458233 3.698271 18.363356 18.363356 0 0 0-6.893687 12.338238l-6.660545 54.230644c-1.257138 10.230817 5.714263 19.245639 15.876509 20.498205zM577.490028 521.570522a18.166786 18.166786 0 0 0 13.458233 3.6937l72.676286-8.909679c10.148532-1.247995 17.124504-10.267388 15.862795-20.498205l-6.655974-54.230644a18.363356 18.363356 0 0 0-6.893687-12.342809 18.239928 18.239928 0 0 0-13.458233-3.6937l-72.667143 8.927965a18.066215 18.066215 0 0 0-12.169095 6.875402 18.386213 18.386213 0 0 0-3.702843 13.604518l6.655974 54.230644a18.363356 18.363356 0 0 0 6.893687 12.342808z" fill="#FCD1C0" p-id="3198"></path><path d="M300.864829 604.409054c54.760928 75.428275 128.456638 117.873823 213.654018 117.873823 83.28653 0 155.94453-40.447841 210.266603-111.053278 42.642118-55.446639 73.928852-129.480634 89.809933-217.836859 2.029706-11.305098 3.949699-22.715339 5.467407-34.468436 0.621712-4.799981 0.845711-9.531391 1.26628-14.281087-38.125565 13.874231-77.750552 21.069632-117.919536 21.069632-113.357269 0-229.909954-10.002246-308.410217-122.820089-31.670733 43.336973-74.422565 59.853479-115.972116 75.889988-19.711923 7.625113-40.095842 15.483368-60.150621 26.303896-3.446844 1.874278-7.332543 2.395419-11.099385 1.892564 0.466284 4.109698 0.635426 8.251396 1.252567 12.324523 1.366852 9.014822 3.076559 17.677645 4.713124 26.422754 16.548506 88.630509 46.546103 162.787932 87.121943 218.682569zM557.714106 639.997486H457.143073a18.285642 18.285642 0 1 1 0-36.571285h100.571033a18.285642 18.285642 0 1 1 0 36.571285z m-249.507591-148.607416l6.660545-54.230645c1.805707-14.642228 9.142821-27.679891 20.685633-36.694713 11.519955-8.982822 25.89247-13.019377 40.429556-11.163384l72.667143 8.927965c14.601085 1.787422 27.602177 9.142821 36.598713 20.754204a54.719785 54.719785 0 0 1 11.117671 40.479841L495.524636 466.283882h32.950728l-0.84114-6.820544a54.719785 54.719785 0 0 1 11.117671-40.484413 54.308358 54.308358 0 0 1 36.616999-20.749632l72.648857-8.927965a54.303787 54.303787 0 0 1 40.429556 11.163384c11.542812 9.014822 18.879926 22.052485 20.685633 36.694713l6.660545 54.230645c3.689128 30.089025-17.714216 57.572345-47.716384 61.25233l-72.676286 8.90968a54.381501 54.381501 0 0 1-40.420412-11.163385c-11.542812-9.014822-18.879926-22.052485-20.685633-36.694713l-1.330281-10.838815h-41.928978l-1.325709 10.838815c-1.810279 14.642228-9.142821 27.679891-20.690205 36.694713a54.376929 54.376929 0 0 1-40.429555 11.163385l-72.662572-8.914251c-30.006739-3.675414-51.410084-31.158735-47.720955-61.247759z" fill="#FCD1C0" p-id="3199"></path><path d="M218.87658 345.086644c20.054778-10.820529 40.438698-18.678784 60.150621-26.303896 41.554122-16.036508 84.301383-32.548444 115.976687-75.889988C473.495008 355.715174 590.047693 365.712849 703.404962 365.712849c40.168985 0 79.793972-7.1954 117.919537-21.074203 1.311995-0.479998 2.651418-0.799997 3.963413-1.298281a18.271928 18.271928 0 0 0 11.830811-17.110789V231.107664C837.123294 103.679593 725.311162 0 587.876273 0H441.170564C303.735675 0 191.909829 103.679593 191.909829 231.107664v97.892186c0 6.445689 3.382844 12.41138 8.923393 15.693653 2.148563 1.307423 4.525697 1.965707 6.948545 2.285705 3.762271 0.502855 7.64797-0.018286 11.094813-1.892564z" fill="#F8A131" p-id="3200"></path><path d="M355.932042 552.637829l72.658 8.914251a54.376929 54.376929 0 0 0 40.429555-11.163385c11.542812-9.014822 18.879926-22.052485 20.685633-36.694713l1.330281-10.838815h41.928978l1.325709 10.838815c1.810279 14.642228 9.142821 27.679891 20.690205 36.694713a54.381501 54.381501 0 0 0 40.420412 11.163385l72.676286-8.914251c30.002168-3.675414 51.405512-31.158735 47.716384-61.247759l-6.660545-54.230645c-1.805707-14.642228-9.142821-27.679891-20.685633-36.694713a54.303787 54.303787 0 0 0-40.429556-11.163384l-72.653429 8.927965c-14.6148 1.787422-27.61132 9.142821-36.616999 20.754204a54.719785 54.719785 0 0 0-11.113099 40.479841l0.84114 6.820544h-32.950728l0.84114-6.820544a54.719785 54.719785 0 0 0-11.117671-40.484413 54.308358 54.308358 0 0 0-36.598713-20.749632L375.982249 389.301328c-14.537086-1.855993-28.909601 2.180563-40.429556 11.163384-11.542812 9.014822-18.879926 22.052485-20.685633 36.694713l-6.660545 54.230645c-3.689128 30.089025 17.714216 57.572345 47.725527 61.25233z m211.711168-111.245277a18.066215 18.066215 0 0 1 12.169095-6.875402l72.667143-8.927965a18.239928 18.239928 0 0 1 13.458233 3.6937 18.363356 18.363356 0 0 1 6.893687 12.342809l6.660545 54.230644c1.257138 10.230817-5.714263 19.245639-15.867366 20.498205l-72.676286 8.914251a18.166786 18.166786 0 0 1-13.458233-3.702843 18.363356 18.363356 0 0 1-6.893687-12.338237l-6.660545-54.230644a18.386213 18.386213 0 0 1 3.707414-13.604518z m-216.474578 0.22857a18.363356 18.363356 0 0 1 6.893687-12.338237 18.098215 18.098215 0 0 1 13.458233-3.6937l72.685429 8.927965a18.066215 18.066215 0 0 1 12.150809 6.875402c2.989703 3.853699 4.315412 8.694823 3.702843 13.604518l-6.655974 54.230644a18.363356 18.363356 0 0 1-6.893687 12.342808 18.221643 18.221643 0 0 1-13.467376 3.6937l-72.658-8.909679c-10.162246-1.247995-17.133647-10.267388-15.876509-20.498205l6.660545-54.230644z" fill="#535353" p-id="3201"></path><path d="M859.408921 658.283128H731.427709c-8.914251 0-17.266218 4.319983-22.409054 11.611383L512 949.011129l-197.018655-279.125761A27.423892 27.423892 0 0 0 292.572291 658.283128H164.591079C99.046194 658.283128 45.716118 711.585776 45.716118 777.121518a27.428464 27.428464 0 0 0 54.856927 0C100.573045 741.8348 129.286075 713.140056 164.591079 713.140056h113.768696l211.23117 299.244538a27.423892 27.423892 0 0 0 44.822681 0L745.635654 713.140056h113.768695c35.305004 0 64.018034 28.694744 64.018035 63.981462a27.428464 27.428464 0 0 0 54.856927 0C978.283882 711.585776 924.953806 658.283128 859.408921 658.283128z" fill="#3BABB7" p-id="3202"></path><path d="M557.714106 603.426201H457.143073a18.285642 18.285642 0 1 0 0 36.571285h100.571033a18.285642 18.285642 0 1 0 0-36.571285z" fill="#535353" p-id="3203"></path></svg>
