<svg t="1566533247426" class="icon" viewBox="0 0 1024 1024" version="1.1" xmlns="http://www.w3.org/2000/svg" p-id="6187" width="64" height="64"><path d="M697.107692 187.076923l139.815385 139.815385c31.507692 29.538462 31.507692 80.738462 0 110.276923L472.615385 801.476923V301.292308l114.215384-114.215385c29.538462-31.507692 80.738462-31.507692 110.276923 0zM984.615385 708.923077v196.923077c0 43.323077-35.446154 78.769231-78.769231 78.769231H413.538462l354.461538-354.461539h137.846154c43.323077 0 78.769231 35.446154 78.769231 78.769231zM39.384615 807.384615V118.153846c0-43.323077 35.446154-78.769231 78.769231-78.769231h196.923077c43.323077 0 78.769231 35.446154 78.769231 78.769231v689.230769c0 98.461538-78.769231 177.230769-177.230769 177.23077s-177.230769-78.769231-177.23077-177.23077z m177.23077 78.769231c43.323077 0 78.769231-35.446154 78.76923-78.769231s-35.446154-78.769231-78.76923-78.76923-78.769231 35.446154-78.769231 78.76923 35.446154 78.769231 78.769231 78.769231z" p-id="6188"></path></svg>
