<svg t="1566533631275" class="icon" viewBox="0 0 1024 1024" version="1.1" xmlns="http://www.w3.org/2000/svg" p-id="6320" width="64" height="64"><path d="M886.153846 39.384615H137.846154C82.707692 39.384615 39.384615 82.707692 39.384615 137.846154v748.307692c0 53.169231 43.323077 98.461538 98.461539 98.461539h748.307692c53.169231 0 98.461538-43.323077 98.461539-98.461539V137.846154c0-55.138462-43.323077-98.461538-98.461539-98.461539z m-47.261538 775.876923c-1.969231 11.815385-13.784615 21.661538-27.569231 21.661539h-610.461539c-11.815385 0-21.661538-11.815385-21.661538-25.6V208.738462c0-11.815385 11.815385-21.661538 25.6-21.661539h610.461538c11.815385 0 21.661538 11.815385 21.661539 25.6v602.584615z m-189.046154-374.153846c19.692308 0 61.046154-15.753846 61.046154-70.892307s-39.384615-57.107692-51.2-57.107693c-23.630769 0-47.261538 17.723077-68.923077 53.169231-21.661538 37.415385-45.292308 76.8-45.292308 76.8-5.907692-25.6-9.846154-47.261538-11.815385-57.107692-3.938462-21.661538-29.538462-70.892308-84.676923-70.892308-53.169231 0-102.4 31.507692-102.4 31.507692-9.846154 5.907692-15.753846 15.753846-15.753846 27.569231 0 17.723077 13.784615 33.476923 33.476923 33.476923 5.907692 0 9.846154-1.969231 13.784616-3.938461 0 0 41.353846-23.630769 49.230769 0 1.969231 5.907692 3.938462 13.784615 7.876923 21.661538 9.846154 35.446154 19.692308 76.8 27.569231 114.215385L427.323077 590.769231s-39.384615-13.784615-61.046154-13.784616-61.046154 15.753846-61.046154 70.892308 39.384615 57.107692 51.2 57.107692c23.630769 0 47.261538-17.723077 68.923077-53.16923 21.661538-37.415385 45.292308-76.8 45.292308-76.8 7.876923 33.476923 11.815385 61.046154 15.753846 70.892307 13.784615 37.415385 43.323077 61.046154 84.676923 61.046154 0 0 41.353846 0 92.553846-27.569231 11.815385-3.938462 19.692308-15.753846 19.692308-29.538461 0-17.723077-13.784615-33.476923-33.476923-33.476923-5.907692 0-9.846154 1.969231-13.784616 3.938461 0 0-35.446154 19.692308-47.261538 3.938462-7.876923-15.753846-15.753846-39.384615-21.661538-64.984616-5.907692-23.630769-11.815385-53.169231-15.753847-80.738461l35.446154-51.2c3.938462 0 43.323077 13.784615 63.015385 13.784615z" p-id="6321"></path></svg>
