<svg width="1333" height="650" xmlns="http://www.w3.org/2000/svg" class="icon">
 <defs>
  <style type="text/css"/>
 </defs>
 <g>
  <title>background</title>
  <rect x="-1" y="-1" width="1335" height="652" id="canvas_background" fill="none"/>
 </g>
 <g>
  <title>Layer 1</title>
  <path stroke="null" d="m1260.242413,73.614803l-309.10187,63.41091l0,445.93616l-4.39777,0.79242c-4.32905,1.18863 -7.97095,2.87253 -11.13184,4.95265l0,-1.28769l-13.12458,0l-0.13743,29.22061l0.13743,0c0,1.08958 0,2.08011 0.06872,3.16969c1.58045,13.17404 10.51341,25.4566 31.8838,22.0888c0,0 33.18939,-6.43844 41.64134,-8.6176c9.82626,-2.37727 17.45363,-4.25927 22.67598,-5.54696l194.5324,-39.91832c12.98715,-2.67443 39.4433,-5.11772 48.67404,-22.49836c9.23074,-17.38064 -20.0993,-167.90401 -5.34141,-245.14659c14.75788,-77.24258 31.05421,-152.85053 46.96608,-256.87733c-35.62384,8.80079 -81.91547,18.16386 -97.78866,21.4326c0,-0.00001 0,-0.00001 0,-0.00001z" fill="#D32F2F" id="svg_1"/>
  <path stroke="null" d="m964.248923,583.163943l0,59.12899c1.11961,-0.09871 2.31388,-0.19743 3.50814,-0.39485c0,0 36.05178,-6.41633 45.23266,-8.4893c10.67371,-2.36911 18.9589,-4.24465 24.63164,-5.52792l211.30967,-39.78127c14.10721,-2.66525 68.99989,-18.55801 68.99989,-37.41217c0,-26.47149 -5.85475,-37.40326 -14.89378,-69.373c-4.51952,-15.98487 -17.1584,-48.99631 -25.29765,-81.13254c-8.13925,-32.13623 -21.77887,-63.39723 -19.20895,-79.51758c5.13984,-32.2407 7.40507,-35.74076 15.86658,-89.45297l-310.1482,60.15747l0,291.79515c0,0 0,-0.00001 0,-0.00001z" fill="#E2A803" id="svg_4"/>
  <path stroke="null" d="m955.223693,457.995367l0,128.4l-5.02146,0.8c-4.94297,1.2 -9.10137,2.9 -12.71053,5l0,-1.3l-14.98587,0l-0.15691,29.5l0.15691,0c0,1.1 0,2.1 0.07847,3.2c1.64767,12.7 10.98441,24.4 32.71784,22.6c1.17689,-0.1 2.43225,-0.2 3.68762,-0.4c0,0 37.89621,-6.5 47.5468,-8.6c11.21978,-2.4 19.92884,-4.3 25.8918,-5.6c74.04014,-13.43333 149.58027,-32.86667 223.62041,-46.3l75.7402,-17.05c-3.71846,-15.63637 -8.56325,-27.16363 -11.06325,-33.71363c-8.81818,-26.72727 -13.09089,-37.86364 -21.2727,-62.59091l-19.09088,-70.54546l-325.13847,56.6l0.00002,0z" fill="#1565C0" id="svg_6"/>
  <path d="m1063.414782,123.229498l-100.5,14.4l0,154.5l47.9,-6.8l52.6,-162.1z" fill="#D32F2F" id="svg_7"/>
  <path d="m962.914782,292.129498l0,140.7l47.9,-147.5l-47.9,6.8z" fill="#E2A803" id="svg_10"/>
  <path d="m928.014782,638.029498l-4.3,-5.9c1,2.1 2.5,4.1 4.3,5.9z" fill="#1565C0" id="svg_11"/>
  <path stroke="null" d="m1063.947503,474.229497l0,-435.2c0,-0.8 0.2513,-1.6 0,-2.4c-6.78519,-18.1 -42.97286,-28 -110.07082,-26l-19.85296,1.1l-1.00521,0l-225.92162,12.5l0,0.1l-698.62302,39l0,517l894.63954,-50c133.69465,-9.64121 63.72362,14.45362 63.72362,26.05362l97.11045,0.44638l0,-82.6c0.00001,0 0.00001,0 0.00002,0z" fill="#F44336" id="svg_17"/>
  <path stroke="null" d="m1065.166686,512.629498l0,-314.5c0,-0.8 0.251992,-1.6 0,-2.4c-6.803544,-18.1 -42.837061,-28.1 -109.612475,-26.1l-19.654643,1.1l1.259918,0l-0.755961,0l-226.532437,12.5l0,0.1l-700.511845,39l0,290.4l1055.807444,0l0,-0.1z" fill="#FFCA28" id="svg_18"/>
  <path stroke="null" d="m1063.947393,377.629497c-6.79377,-18.1 -43.02717,-28 -110.20995,-26l-19.87805,1.1l-1.00649,0l-226.20717,12.5l0,0.1l-699.50607,39l0,176l897.01984,-50c56.22672,-0.77833 29.98759,22.1835 29.98759,33.9l129.8003,-8.3l0,-175.9c0,-0.8 0.25162,-1.6 0,-2.4z" fill="#2196F3" id="svg_19"/>
  <path stroke="null" d="m956.217299,594.578622c-16.02284,4.692206 -22.564759,11.470847 -29.299608,31.605821c-2.712291,-36.399858 -4.759285,-56.36166 -8.377209,-92.682324l91.312837,-11.95844c40.534559,-2.783926 51.653912,11.56701 52.800787,31.907769c1.146876,20.34076 -17.266907,35.585563 -49.368987,35.915468l-57.130044,4.500137z" fill="#0D47A1" id="svg_20" transform="rotate(4.9975738525390625 990.6226196289062,573.6913452148439) "/>
 </g>
</svg>
